<?xml version="1.0" encoding="us-ascii" standalone="no"?><svg xmlns="http://www.w3.org/2000/svg" xmlns:xlink="http://www.w3.org/1999/xlink" contentStyleType="text/css" height="577px" preserveAspectRatio="none" style="width:435px;height:577px;background:#FFFFFF;" version="1.1" viewBox="0 0 435 577" width="435px" zoomAndPan="magnify"><defs/><g><!--class product--><g id="elem_product"><rect codeLine="2" fill="#F1F1F1" height="127.7617" id="product" rx="2.5" ry="2.5" style="stroke:#181818;stroke-width:0.5;" width="142" x="7" y="225"/><ellipse cx="49.45" cy="241" fill="#ADD1B2" rx="11" ry="11" style="stroke:#181818;stroke-width:1.0;"/><path d="M54.95,244.0313 L54.2469,247.0156 L44.6063,247.0156 L44.6063,246.6875 Q45.4969,246.5938 45.8094,246.3438 Q46.2469,245.9844 46.2469,244.9688 L46.2469,236.8594 Q46.2469,235.7969 45.8094,235.4375 Q45.5281,235.2031 44.6063,235.125 L44.6063,234.7969 L54.1219,234.7969 L54.1688,237.2813 L52.825,237.2813 Q52.6219,236 52.1844,235.6875 Q51.7625,235.3594 50.3406,235.3594 L47.95,235.3594 Q47.95,235.3594 47.95,235.3906 Q48.1688,235.4688 48.1688,235.9844 L48.1688,240.25 L50.0125,240.25 Q51.075,240.25 51.4188,239.8906 Q51.7,239.5938 51.8563,238.5469 L53.2,238.5469 L53.2,242.6719 L51.8563,242.6719 Q51.7,241.5469 51.3875,241.25 Q51.0594,240.9375 50.0125,240.9375 L48.2938,240.9375 L48.2938,245.5469 Q48.2938,246.1563 48.7156,246.3125 Q49.1375,246.4531 50.0438,246.4531 Q51.5906,246.4531 52.3094,245.9531 Q53.0125,245.4531 53.5906,244.0313 L54.95,244.0313 Z " fill="#000000"/><text fill="#000000" font-family="sans-serif" font-size="14" lengthAdjust="spacing" textLength="49" x="69.55" y="247.894">Product</text><line style="stroke:#181818;stroke-width:0.5;" x1="8" x2="148" y1="257" y2="257"/><ellipse cx="18" cy="272.4702" fill="#000000" rx="3" ry="3" style="stroke:#000000;stroke-width:1.0;"/><text fill="#000000" font-family="sans-serif" font-size="14" lengthAdjust="spacing" textLength="72" x="27" y="277.8643">id: int &#171;PK&#187;</text><line style="stroke:#181818;stroke-width:1.0;" x1="8" x2="148" y1="284.9404" y2="284.9404"/><text fill="#000000" font-family="sans-serif" font-size="14" lengthAdjust="spacing" textLength="125" x="13" y="305.8047">name: varchar(200)</text><text fill="#000000" font-family="sans-serif" font-size="14" lengthAdjust="spacing" textLength="129" x="13" y="325.7451">price: decimal(10, 2)</text><text fill="#000000" font-family="sans-serif" font-size="14" lengthAdjust="spacing" textLength="130" x="13" y="345.6855">created_at: datetime</text></g><!--class coupon--><g id="elem_coupon"><rect codeLine="10" fill="#F1F1F1" height="147.7021" id="coupon" rx="2.5" ry="2.5" style="stroke:#181818;stroke-width:0.5;" width="182" x="215" y="7"/><ellipse cx="276.75" cy="23" fill="#ADD1B2" rx="11" ry="11" style="stroke:#181818;stroke-width:1.0;"/><path d="M282.25,26.0313 L281.5469,29.0156 L271.9063,29.0156 L271.9063,28.6875 Q272.7969,28.5938 273.1094,28.3438 Q273.5469,27.9844 273.5469,26.9688 L273.5469,18.8594 Q273.5469,17.7969 273.1094,17.4375 Q272.8281,17.2031 271.9063,17.125 L271.9063,16.7969 L281.4219,16.7969 L281.4688,19.2813 L280.125,19.2813 Q279.9219,18 279.4844,17.6875 Q279.0625,17.3594 277.6406,17.3594 L275.25,17.3594 Q275.25,17.3594 275.25,17.3906 Q275.4688,17.4688 275.4688,17.9844 L275.4688,22.25 L277.3125,22.25 Q278.375,22.25 278.7188,21.8906 Q279,21.5938 279.1563,20.5469 L280.5,20.5469 L280.5,24.6719 L279.1563,24.6719 Q279,23.5469 278.6875,23.25 Q278.3594,22.9375 277.3125,22.9375 L275.5938,22.9375 L275.5938,27.5469 Q275.5938,28.1563 276.0156,28.3125 Q276.4375,28.4531 277.3438,28.4531 Q278.8906,28.4531 279.6094,27.9531 Q280.3125,27.4531 280.8906,26.0313 L282.25,26.0313 Z " fill="#000000"/><text fill="#000000" font-family="sans-serif" font-size="14" lengthAdjust="spacing" textLength="50" x="297.25" y="29.894">Coupon</text><line style="stroke:#181818;stroke-width:0.5;" x1="216" x2="396" y1="39" y2="39"/><ellipse cx="226" cy="54.4702" fill="#000000" rx="3" ry="3" style="stroke:#000000;stroke-width:1.0;"/><text fill="#000000" font-family="sans-serif" font-size="14" lengthAdjust="spacing" textLength="151" x="235" y="59.8643">code: varchar(50) &#171;PK&#187;</text><line style="stroke:#181818;stroke-width:1.0;" x1="216" x2="396" y1="66.9404" y2="66.9404"/><text fill="#000000" font-family="sans-serif" font-size="14" lengthAdjust="spacing" textLength="170" x="221" y="87.8047">discount_type: varchar(10)</text><text fill="#000000" font-family="sans-serif" font-size="14" lengthAdjust="spacing" textLength="132" x="221" y="107.7451">value: decimal(10, 2)</text><text fill="#000000" font-family="sans-serif" font-size="14" lengthAdjust="spacing" textLength="159" x="221" y="127.6855">expiration_date: datetime</text><text fill="#000000" font-family="sans-serif" font-size="14" lengthAdjust="spacing" textLength="96" x="221" y="147.626">active: boolean</text></g><!--class order--><g id="elem_order"><rect codeLine="19" fill="#F1F1F1" height="147.7021" id="order" rx="2.5" ry="2.5" style="stroke:#181818;stroke-width:0.5;" width="244" x="184" y="215"/><ellipse cx="283.25" cy="231" fill="#ADD1B2" rx="11" ry="11" style="stroke:#181818;stroke-width:1.0;"/><path d="M288.75,234.0313 L288.0469,237.0156 L278.4063,237.0156 L278.4063,236.6875 Q279.2969,236.5938 279.6094,236.3438 Q280.0469,235.9844 280.0469,234.9688 L280.0469,226.8594 Q280.0469,225.7969 279.6094,225.4375 Q279.3281,225.2031 278.4063,225.125 L278.4063,224.7969 L287.9219,224.7969 L287.9688,227.2813 L286.625,227.2813 Q286.4219,226 285.9844,225.6875 Q285.5625,225.3594 284.1406,225.3594 L281.75,225.3594 Q281.75,225.3594 281.75,225.3906 Q281.9688,225.4688 281.9688,225.9844 L281.9688,230.25 L283.8125,230.25 Q284.875,230.25 285.2188,229.8906 Q285.5,229.5938 285.6563,228.5469 L287,228.5469 L287,232.6719 L285.6563,232.6719 Q285.5,231.5469 285.1875,231.25 Q284.8594,230.9375 283.8125,230.9375 L282.0938,230.9375 L282.0938,235.5469 Q282.0938,236.1563 282.5156,236.3125 Q282.9375,236.4531 283.8438,236.4531 Q285.3906,236.4531 286.1094,235.9531 Q286.8125,235.4531 287.3906,234.0313 L288.75,234.0313 Z " fill="#000000"/><text fill="#000000" font-family="sans-serif" font-size="14" lengthAdjust="spacing" textLength="37" x="303.75" y="237.894">Order</text><line style="stroke:#181818;stroke-width:0.5;" x1="185" x2="427" y1="247" y2="247"/><ellipse cx="195" cy="262.4702" fill="#000000" rx="3" ry="3" style="stroke:#000000;stroke-width:1.0;"/><text fill="#000000" font-family="sans-serif" font-size="14" lengthAdjust="spacing" textLength="218" x="204" y="267.8643">order_number: varchar(100) &#171;PK&#187;</text><line style="stroke:#181818;stroke-width:1.0;" x1="185" x2="427" y1="274.9404" y2="274.9404"/><text fill="#000000" font-family="sans-serif" font-size="14" lengthAdjust="spacing" textLength="164" x="190" y="295.8047">total_price: decimal(10, 3)</text><text fill="#000000" font-family="sans-serif" font-size="14" lengthAdjust="spacing" textLength="206" x="190" y="315.7451">discount_amount: decimal(10, 3)</text><text fill="#000000" font-family="sans-serif" font-size="14" lengthAdjust="spacing" textLength="144" x="190" y="335.6855">created_time: datetime</text><text fill="#000000" font-family="sans-serif" font-size="14" lengthAdjust="spacing" textLength="127" x="190" y="355.626">coupon_id: int &#171;FK&#187;</text></g><!--class order_item--><g id="elem_order_item"><rect codeLine="29" fill="#F1F1F1" height="147.7021" id="order_item" rx="2.5" ry="2.5" style="stroke:#181818;stroke-width:0.5;" width="228" x="78" y="423"/><ellipse cx="156.25" cy="439" fill="#ADD1B2" rx="11" ry="11" style="stroke:#181818;stroke-width:1.0;"/><path d="M161.75,442.0313 L161.0469,445.0156 L151.4063,445.0156 L151.4063,444.6875 Q152.2969,444.5938 152.6094,444.3438 Q153.0469,443.9844 153.0469,442.9688 L153.0469,434.8594 Q153.0469,433.7969 152.6094,433.4375 Q152.3281,433.2031 151.4063,433.125 L151.4063,432.7969 L160.9219,432.7969 L160.9688,435.2813 L159.625,435.2813 Q159.4219,434 158.9844,433.6875 Q158.5625,433.3594 157.1406,433.3594 L154.75,433.3594 Q154.75,433.3594 154.75,433.3906 Q154.9688,433.4688 154.9688,433.9844 L154.9688,438.25 L156.8125,438.25 Q157.875,438.25 158.2188,437.8906 Q158.5,437.5938 158.6563,436.5469 L160,436.5469 L160,440.6719 L158.6563,440.6719 Q158.5,439.5469 158.1875,439.25 Q157.8594,438.9375 156.8125,438.9375 L155.0938,438.9375 L155.0938,443.5469 Q155.0938,444.1563 155.5156,444.3125 Q155.9375,444.4531 156.8438,444.4531 Q158.3906,444.4531 159.1094,443.9531 Q159.8125,443.4531 160.3906,442.0313 L161.75,442.0313 Z " fill="#000000"/><text fill="#000000" font-family="sans-serif" font-size="14" lengthAdjust="spacing" textLength="63" x="176.75" y="445.894">OrderItem</text><line style="stroke:#181818;stroke-width:0.5;" x1="79" x2="305" y1="455" y2="455"/><ellipse cx="89" cy="470.4702" fill="#000000" rx="3" ry="3" style="stroke:#000000;stroke-width:1.0;"/><text fill="#000000" font-family="sans-serif" font-size="14" lengthAdjust="spacing" textLength="72" x="98" y="475.8643">id: int &#171;PK&#187;</text><line style="stroke:#181818;stroke-width:1.0;" x1="79" x2="305" y1="482.9404" y2="482.9404"/><text fill="#000000" font-family="sans-serif" font-size="14" lengthAdjust="spacing" textLength="181" x="84" y="503.8047">order_id: varchar(100) &#171;FK&#187;</text><text fill="#000000" font-family="sans-serif" font-size="14" lengthAdjust="spacing" textLength="128" x="84" y="523.7451">product_id: int &#171;FK&#187;</text><text fill="#000000" font-family="sans-serif" font-size="14" lengthAdjust="spacing" textLength="73" x="84" y="543.6855">quantity: int</text><text fill="#000000" font-family="sans-serif" font-size="14" lengthAdjust="spacing" textLength="216" x="84" y="563.626">price_at_purchase: decimal(10, 2)</text></g><!--link coupon to order--><g id="link_coupon_order"><path codeLine="41" d="M306,173.21 C306,192.52 306,187.36 306,206.68 " fill="none" id="coupon-order" style="stroke:#181818;stroke-width:1.0;"/><line style="stroke:#181818;stroke-width:1.0;" x1="306" x2="300" y1="163.21" y2="155.21"/><line style="stroke:#181818;stroke-width:1.0;" x1="306" x2="312" y1="163.21" y2="155.21"/><line style="stroke:#181818;stroke-width:1.0;" x1="306" x2="306" y1="163.21" y2="155.21"/><ellipse cx="306" cy="169.21" fill="none" rx="4" ry="4" style="stroke:#181818;stroke-width:1.0;"/><line style="stroke:#181818;stroke-width:1.0;" x1="310" x2="302" y1="210.68" y2="210.68"/><line style="stroke:#181818;stroke-width:1.0;" x1="310" x2="302" y1="207.68" y2="207.68"/><line style="stroke:#181818;stroke-width:1.0;" x1="306" x2="306" y1="206.68" y2="214.68"/></g><!--link order to order_item--><g id="link_order_order_item"><path codeLine="44" d="M261.6153,370.2091 C250.9253,389.5191 251.9908,387.6136 241.2908,406.9336 " fill="none" id="order-order_item" style="stroke:#181818;stroke-width:1.0;"/><line style="stroke:#181818;stroke-width:1.0;" x1="260.0531" x2="267.0522" y1="364.7722" y2="368.6469"/><line style="stroke:#181818;stroke-width:1.0;" x1="258.6001" x2="265.5992" y1="367.3968" y2="371.2715"/><line style="stroke:#181818;stroke-width:1.0;" x1="261.6153" x2="265.49" y1="370.2091" y2="363.21"/><line style="stroke:#181818;stroke-width:1.0;" x1="236.4459" x2="237.8188" y1="415.6816" y2="425.5869"/><line style="stroke:#181818;stroke-width:1.0;" x1="236.4459" x2="227.3212" y1="415.6816" y2="419.7731"/><line style="stroke:#181818;stroke-width:1.0;" x1="236.4459" x2="232.57" y1="415.6816" y2="422.68"/><ellipse cx="239.3528" cy="410.4328" fill="none" rx="4" ry="4" style="stroke:#181818;stroke-width:1.0;"/></g><!--link product to order_item--><g id="link_product_order_item"><path codeLine="45" d="M116.8524,360.2103 C129.0224,382.2103 130.1937,384.3211 142.7737,407.0511 " fill="none" id="product-order_item" style="stroke:#181818;stroke-width:1.0;"/><line style="stroke:#181818;stroke-width:1.0;" x1="111.4161" x2="118.4164" y1="358.6464" y2="354.7739"/><line style="stroke:#181818;stroke-width:1.0;" x1="112.8682" x2="119.8685" y1="361.2715" y2="357.399"/><line style="stroke:#181818;stroke-width:1.0;" x1="116.8524" x2="112.98" y1="360.2103" y2="353.21"/><line style="stroke:#181818;stroke-width:1.0;" x1="147.6161" x2="156.7396" y1="415.8005" y2="419.8946"/><line style="stroke:#181818;stroke-width:1.0;" x1="147.6161" x2="146.2404" y1="415.8005" y2="425.7054"/><line style="stroke:#181818;stroke-width:1.0;" x1="147.6161" x2="151.49" y1="415.8005" y2="422.8"/><ellipse cx="144.7107" cy="410.5509" fill="none" rx="4" ry="4" style="stroke:#181818;stroke-width:1.0;"/></g><!--SRC=[VLF1IiD04BtdAuPURCL0hNWfuaKGn8F-GLYJ1HUIRDnkYc85HK6XIa55HRqe2aMHUb4K5NycqVGltDriRMoAbyraPZBptjiNx7F2rw2moAWJshm0g0P16iEw0J0AnAa2yJbCJItEJq-Bb6cAmqSUha8TCNiPiMAbN2w9PC28BR8Ejec7tE9uUGmgCcypZ3XsBCH5KKISUDZOC0oiby_GCA2-scshKA-sgPDPCbak3O1mI4tq-zpYQq6cSLo1gICt70O6hmQ48KweRqai6KG0oEQaBb9BbBeO-LcC2yp1J46aCj88LMpveRU4MHP03Ygd7BdM484cIbaYo9EF8Hqz2INGFv1JmQp-BStAhGBu22Z8Snnxy7NMITyWFjm7VTSGlJQx9qVVvplnpNdyU23ExkbbijL9hjf_QSiPVUeMaIF_CuTkStAApAPDsc23e05MGgJsgdJFKC8sLX3AERNyVGgYWcdqiXblDY7r4SIjJlHscrpVVn-tuyksP2UAAV_evG6AibtnBVM_rVAqxfBjZ-ZZKtpQlNZ-sZkHvVSdFThGzjoWfjbef3n_bOPaR_TNsxogHkgRHiCqwNf6IQFtk-KhnWy0]--></g></svg>