<?xml version="1.0" encoding="us-ascii" standalone="no"?><svg xmlns="http://www.w3.org/2000/svg" xmlns:xlink="http://www.w3.org/1999/xlink" contentStyleType="text/css" height="316px" preserveAspectRatio="none" style="width:637px;height:316px;background:#FFFFFF;" version="1.1" viewBox="0 0 637 316" width="637px" zoomAndPan="magnify"><defs/><g><!--cluster Ecommerce--><g id="cluster_Ecommerce"><rect fill="none" height="303" rx="2.5" ry="2.5" style="stroke:#181818;stroke-width:1.0;" width="539" x="92" y="7"/><text fill="#000000" font-family="sans-serif" font-size="14" font-weight="bold" lengthAdjust="spacing" textLength="82" x="320.5" y="25.8643">Ecommerce</text></g><g id="elem_uc0"><ellipse cx="188.47" cy="204.894" fill="#F1F1F1" rx="77.47" ry="17.894" style="stroke:#181818;stroke-width:0.5;"/><text fill="#000000" font-family="sans-serif" font-size="14" lengthAdjust="spacing" textLength="97" x="136.97" y="210.5761">Create Coupon</text></g><g id="elem_uc3"><ellipse cx="188.6251" cy="275.825" fill="#F1F1F1" rx="77.1251" ry="17.825" style="stroke:#181818;stroke-width:0.5;"/><text fill="#000000" font-family="sans-serif" font-size="14" lengthAdjust="spacing" textLength="96" x="137.6251" y="281.5071">Create Product</text></g><g id="elem_uc1"><ellipse cx="188.2902" cy="63.958" fill="#F1F1F1" rx="80.2902" ry="18.458" style="stroke:#181818;stroke-width:0.5;"/><text fill="#000000" font-family="sans-serif" font-size="14" lengthAdjust="spacing" textLength="105" x="132.7902" y="69.6402">Search Products</text></g><g id="elem_uc2"><ellipse cx="188.6714" cy="135.2339" fill="#F1F1F1" rx="68.6714" ry="17.2339" style="stroke:#181818;stroke-width:0.5;"/><text fill="#000000" font-family="sans-serif" font-size="14" lengthAdjust="spacing" textLength="80" x="145.6714" y="140.916">Import Order</text></g><g id="elem_uc1_1"><ellipse cx="499.3368" cy="67.9674" fill="#F1F1F1" rx="102.8368" ry="22.9674" style="stroke:#181818;stroke-width:0.5;"/><text fill="#000000" font-family="sans-serif" font-size="14" lengthAdjust="spacing" textLength="161" x="418.8368" y="72.8614">Search Products By Price</text></g><g id="elem_uc1_2"><ellipse cx="499.6327" cy="152.0265" fill="#F1F1F1" rx="115.6327" ry="25.5265" style="stroke:#181818;stroke-width:0.5;"/><text fill="#000000" font-family="sans-serif" font-size="14" lengthAdjust="spacing" textLength="190" x="404.6327" y="156.9206">Search Products By Keywords</text></g><g id="elem_uc2_1"><ellipse cx="499.5104" cy="235.9021" fill="#F1F1F1" rx="105.0104" ry="23.4021" style="stroke:#181818;stroke-width:0.5;"/><text fill="#000000" font-family="sans-serif" font-size="14" lengthAdjust="spacing" textLength="166" x="416.5104" y="240.7961">Import Order With Coupon</text></g><!--entity user--><g id="elem_user"><ellipse cx="25.5" cy="86.5" fill="#F1F1F1" rx="8" ry="8" style="stroke:#181818;stroke-width:0.5;"/><path d="M25.5,94.5 L25.5,121.5 M12.5,102.5 L38.5,102.5 M25.5,121.5 L12.5,136.5 M25.5,121.5 L38.5,136.5 " fill="none" style="stroke:#181818;stroke-width:0.5;"/><text fill="#000000" font-family="sans-serif" font-size="14" lengthAdjust="spacing" textLength="29" x="11" y="154.8643">User</text></g><!--entity admin--><g id="elem_admin"><ellipse cx="25.5" cy="211.5" fill="#F1F1F1" rx="8" ry="8" style="stroke:#181818;stroke-width:0.5;"/><path d="M25.5,219.5 L25.5,246.5 M12.5,227.5 L38.5,227.5 M25.5,246.5 L12.5,261.5 M25.5,246.5 L38.5,261.5 " fill="none" style="stroke:#181818;stroke-width:0.5;"/><text fill="#000000" font-family="sans-serif" font-size="14" lengthAdjust="spacing" textLength="39" x="6" y="279.8643">Admin</text></g><!--link admin to uc0--><g id="link_admin_uc0"><path d="M45.3,237.24 C54.26,234.58 65.14,231.47 75,229 C92.53,224.61 105.8606,221.565 123.3506,217.855 " fill="none" id="admin-to-uc0" style="stroke:#181818;stroke-width:1.0;"/><polygon fill="#181818" points="129.22,216.61,119.5859,214.5646,124.3288,217.6475,121.2459,222.3905,129.22,216.61" style="stroke:#181818;stroke-width:1.0;"/></g><!--link admin to uc3--><g id="link_admin_uc3"><path d="M45.28,246.85 C65.94,251.08 94.2624,256.8844 123.9524,262.9744 " fill="none" id="admin-to-uc3" style="stroke:#181818;stroke-width:1.0;"/><polygon fill="#181818" points="129.83,264.18,121.8173,258.4532,124.932,263.1753,120.2098,266.29,129.83,264.18" style="stroke:#181818;stroke-width:1.0;"/></g><!--link user to uc1--><g id="link_user_uc1"><path d="M40.37,111.86 C49.99,107.7 63.16,102.22 75,98 C94.99,90.88 111.5451,85.6275 131.0051,79.8875 " fill="none" id="user-to-uc1" style="stroke:#181818;stroke-width:1.0;"/><polygon fill="#181818" points="136.76,78.19,126.996,76.8996,131.9643,79.6046,129.2593,84.5728,136.76,78.19" style="stroke:#181818;stroke-width:1.0;"/></g><!--link user to uc2--><g id="link_user_uc2"><path d="M40.23,119.45 C59.01,121.43 87.9732,124.4896 119.1132,127.7796 " fill="none" id="user-to-uc2" style="stroke:#181818;stroke-width:1.0;"/><polygon fill="#181818" points="125.08,128.41,116.5501,123.4865,120.1077,127.8847,115.7095,131.4423,125.08,128.41" style="stroke:#181818;stroke-width:1.0;"/></g><!--reverse link uc1 to uc1_1--><g id="link_uc1_uc1_1"><path d="M275.0795,65.1073 C313.8795,65.6073 355,66.14 396.42,66.68 " fill="none" id="uc1-backto-uc1_1" style="stroke:#181818;stroke-width:1.0;"/><polygon fill="#181818" points="269.08,65.03,278.0277,69.1456,274.0796,65.0944,278.1308,61.1463,269.08,65.03" style="stroke:#181818;stroke-width:1.0;"/><text fill="#000000" font-family="sans-serif" font-size="13" lengthAdjust="spacing" textLength="53" x="300" y="62.6597">&#171;extend&#187;</text></g><!--reverse link uc1 to uc1_2--><g id="link_uc1_uc1_2"><path d="M245.6004,79.974 C296.7404,94.544 370.59,115.57 427.99,131.92 " fill="none" id="uc1-backto-uc1_2" style="stroke:#181818;stroke-width:1.0;"/><polygon fill="#181818" points="239.83,78.33,247.3896,84.6429,244.6386,79.7,249.5816,76.9491,239.83,78.33" style="stroke:#181818;stroke-width:1.0;"/><text fill="#000000" font-family="sans-serif" font-size="13" lengthAdjust="spacing" textLength="53" x="300" y="94.6597">&#171;extend&#187;</text></g><!--reverse link uc2 to uc2_1--><g id="link_uc2_uc2_1"><path d="M236.5532,150.3838 C290.1632,167.9038 378.31,196.72 439.42,216.69 " fill="none" id="uc2-backto-uc2_1" style="stroke:#181818;stroke-width:1.0;"/><polygon fill="#181818" points="230.85,148.52,238.1622,155.1178,235.6026,150.0732,240.6473,147.5136,230.85,148.52" style="stroke:#181818;stroke-width:1.0;"/><text fill="#000000" font-family="sans-serif" font-size="13" lengthAdjust="spacing" textLength="53" x="300" y="170.6597">&#171;extend&#187;</text></g><!--SRC=[XP1DIyD048Rl-ojUSW-OxKr2G8k7ua51n6DPPiTceScMoGGjudztaoRI53_sD1_FE_FkxFbLeH4IThN21s7I45lZIACWU-vOChWEVGhcuerlGZjMtH0PCuXSkzipxYWs3GinFWpIIp9o7IDR2pjbh6D_Y2TjJrS_8eyIVKywCQibyyHEg9wPReAA9RHf3b4K3-9dysJ_78FROue3yJnlM_pBt_FnBOh_jh2rlvl0Iz1w-NURLfXFCnuGULwDvpZFLcOu-PGKvuargO0opqzESOsov7VbrbVLecKlMtPgsGlL5m00]--></g></svg>